<svg xmlns="http://www.w3.org/2000/svg" width="810" height="252" viewBox="0 0 810 252" font-family="ui-sans-serif,system-ui,-apple-system,Segoe UI,Roboto,Helvetica,Arial,sans-serif">
<rect width="100%" height="100%" fill="#ffffff"/>
<text x="16" y="26" font-size="15" font-weight="600" fill="#1b1f24">Peak resident set relative to the control — alpine / x86_64 / static-pie-lto / distro</text>
<text x="16" y="45" font-size="11" fill="#5b636d">workload `literal`; ru_maxrss from wait4, median of the run's samples; lower is less memory</text>
<line x1="383.6" y1="52.0" x2="383.6" y2="218.0" stroke="#d8dce1" stroke-width="1" stroke-dasharray="4 3"/>
<text x="383.6" y="48.0" font-size="10" fill="#5b636d" text-anchor="middle">control</text>
<text x="250" y="79.7" font-size="11" fill="#1b1f24" text-anchor="end">snmalloc / rust-global</text>
<rect x="260" y="67.0" width="183.7" height="15" rx="2" fill="#d1495b"/>
<text x="449.7" y="79.7" font-size="10.5" fill="#5b636d">1.486x  (6.9 MiB)</text>
<text x="250" y="105.7" font-size="11" fill="#1b1f24" text-anchor="end">mimalloc / rust-global</text>
<rect x="260" y="93.0" width="425.9" height="15" rx="2" fill="#d1495b"/>
<text x="691.9" y="105.7" font-size="10.5" fill="#5b636d">3.446x  (15.9 MiB)</text>
<text x="250" y="131.7" font-size="11" fill="#1b1f24" text-anchor="end">rpmalloc / rust-global</text>
<rect x="260" y="119.0" width="140.3" height="15" rx="2" fill="#d1495b"/>
<text x="406.3" y="131.7" font-size="10.5" fill="#5b636d">1.135x  (5.3 MiB)</text>
<text x="250" y="157.7" font-size="11" fill="#1b1f24" text-anchor="end">jemalloc / rust-global</text>
<rect x="260" y="145.0" width="202.0" height="15" rx="2" fill="#d1495b"/>
<text x="468.0" y="157.7" font-size="10.5" fill="#5b636d">1.634x  (7.6 MiB)</text>
<text x="250" y="183.7" font-size="11" fill="#1b1f24" text-anchor="end">system (control)</text>
<rect x="260" y="171.0" width="123.6" height="15" rx="2" fill="#8a8f98"/>
<text x="389.6" y="183.7" font-size="10.5" fill="#5b636d">1.000x  (4.6 MiB)</text>
<text x="250" y="209.7" font-size="11" fill="#1b1f24" text-anchor="end">hardened_malloc / rust-global</text>
<rect x="260" y="197.0" width="352.3" height="15" rx="2" fill="#d1495b"/>
<text x="618.3" y="209.7" font-size="10.5" fill="#5b636d">2.850x  (13.2 MiB)</text>
<text x="16" y="240.0" font-size="10" fill="#5b636d">Peak RSS is what sets a container's memory limit. It is not the allocator's own idea of heap size.</text></svg>